<svg width="20" height="20" viewBox="0 0 20 20" fill="none" xmlns="http://www.w3.org/2000/svg">
    <path
        d="M18.0915 7.74162L14.7581 4.40828C14.6804 4.33059 14.5882 4.26895 14.4867 4.2269C14.3851 4.18485 14.2763 4.16321 14.1665 4.16321C13.9445 4.16321 13.7317 4.25136 13.5748 4.40828C13.4179 4.5652 13.3297 4.77803 13.3297 4.99995C13.3297 5.22187 13.4179 5.4347 13.5748 5.59162L15.4915 7.49995H5.83312C5.61211 7.49995 5.40015 7.58775 5.24387 7.74403C5.08759 7.90031 4.99979 8.11227 4.99979 8.33328C4.99979 8.5543 5.08759 8.76626 5.24387 8.92254C5.40015 9.07882 5.61211 9.16662 5.83312 9.16662H17.4998C17.6643 9.1658 17.8249 9.11629 17.9613 9.02435C18.0978 8.93241 18.2039 8.80213 18.2665 8.64995C18.3303 8.49819 18.3477 8.33093 18.3166 8.16927C18.2854 8.00762 18.2071 7.8588 18.0915 7.74162V7.74162ZM14.1665 10.8333H2.49979C2.33527 10.8341 2.17467 10.8836 2.03824 10.9756C1.90181 11.0675 1.79564 11.1978 1.73312 11.35C1.66931 11.5017 1.65187 11.669 1.68302 11.8306C1.71416 11.9923 1.79249 12.1411 1.90812 12.2583L5.24146 15.5916C5.31893 15.6697 5.41109 15.7317 5.51264 15.774C5.61419 15.8163 5.72311 15.8381 5.83312 15.8381C5.94313 15.8381 6.05206 15.8163 6.1536 15.774C6.25515 15.7317 6.34732 15.6697 6.42479 15.5916C6.5029 15.5141 6.56489 15.422 6.6072 15.3204C6.64951 15.2189 6.67129 15.11 6.67129 15C6.67129 14.8899 6.64951 14.781 6.6072 14.6795C6.56489 14.5779 6.5029 14.4858 6.42479 14.4083L4.50812 12.5H14.1665C14.3875 12.5 14.5994 12.4122 14.7557 12.2559C14.912 12.0996 14.9998 11.8876 14.9998 11.6666C14.9998 11.4456 14.912 11.2336 14.7557 11.0774C14.5994 10.9211 14.3875 10.8333 14.1665 10.8333Z"
        fill="#7A7A7A" />
</svg>
    