<svg width="16" height="16" viewBox="0 0 20 20" fill="none" xmlns="http://www.w3.org/2000/svg">
<path d="M7.74247 1.9083L4.40914 5.24163C4.33144 5.31933 4.26981 5.41157 4.22776 5.51309C4.18571 5.61461 4.16406 5.72342 4.16406 5.8333C4.16406 6.05522 4.25222 6.26805 4.40914 6.42496C4.56606 6.58188 4.77889 6.67004 5.00081 6.67004C5.22272 6.67004 5.43555 6.58188 5.59247 6.42496L7.50081 4.5083L7.50081 14.1666C7.50081 14.3876 7.5886 14.5996 7.74488 14.7559C7.90116 14.9122 8.11313 15 8.33414 15C8.55515 15 8.76711 14.9122 8.92339 14.7559C9.07967 14.5996 9.16747 14.3876 9.16747 14.1666V2.49997C9.16665 2.33544 9.11715 2.17485 9.0252 2.03841C8.93326 1.90198 8.80299 1.79582 8.65081 1.7333C8.49905 1.66948 8.33179 1.65205 8.17013 1.68319C8.00847 1.71434 7.85966 1.79267 7.74247 1.9083V1.9083ZM10.8341 5.8333V17.5C10.835 17.6645 10.8845 17.8251 10.9764 17.9615C11.0684 18.098 11.1986 18.2041 11.3508 18.2666C11.5026 18.3304 11.6698 18.3479 11.8315 18.3167C11.9931 18.2856 12.142 18.2073 12.2591 18.0916L15.5925 14.7583C15.6706 14.6808 15.7326 14.5887 15.7749 14.4871C15.8172 14.3856 15.839 14.2766 15.839 14.1666C15.839 14.0566 15.8172 13.9477 15.7749 13.8462C15.7326 13.7446 15.6706 13.6524 15.5925 13.575C15.515 13.4969 15.4228 13.4349 15.3213 13.3926C15.2197 13.3502 15.1108 13.3285 15.0008 13.3285C14.8908 13.3285 14.7819 13.3502 14.6803 13.3926C14.5788 13.4349 14.4866 13.4969 14.4091 13.575L12.5008 15.4916V5.8333C12.5008 5.61229 12.413 5.40032 12.2567 5.24404C12.1004 5.08776 11.8885 4.99997 11.6675 4.99997C11.4465 4.99997 11.2345 5.08776 11.0782 5.24404C10.9219 5.40032 10.8341 5.61229 10.8341 5.8333Z" fill="#7A7A7A"/>
</svg>
