<svg width="20" height="21" viewBox="0 0 20 21" fill="none" xmlns="http://www.w3.org/2000/svg">
    <path d="M14.9998 8.83328C14.9998 8.61227 14.912 8.40031 14.7557 8.24403C14.5994 8.08775 14.3875 7.99995 14.1665 7.99995H4.50812L6.42479 6.09162C6.58171 5.9347 6.66987 5.72187 6.66987 5.49995C6.66987 5.27803 6.58171 5.0652 6.42479 4.90828C6.26787 4.75136 6.05504 4.66321 5.83312 4.66321C5.61121 4.66321 5.39838 4.75136 5.24146 4.90828L1.90812 8.24162C1.79249 8.3588 1.71416 8.50762 1.68302 8.66927C1.65187 8.83093 1.66931 8.99819 1.73312 9.14995C1.79564 9.30213 1.90181 9.43241 2.03824 9.52435C2.17467 9.61629 2.33527 9.6658 2.49979 9.66662H14.1665C14.3875 9.66662 14.5994 9.57882 14.7557 9.42254C14.912 9.26626 14.9998 9.0543 14.9998 8.83328ZM18.2665 11.85C18.2039 11.6978 18.0978 11.5675 17.9613 11.4756C17.8249 11.3836 17.6643 11.3341 17.4998 11.3333H5.83312C5.61211 11.3333 5.40015 11.4211 5.24387 11.5774C5.08759 11.7336 4.99979 11.9456 4.99979 12.1666C4.99979 12.3876 5.08759 12.5996 5.24387 12.7559C5.40015 12.9122 5.61211 13 5.83312 13H15.4915L13.5748 14.9083C13.4967 14.9858 13.4347 15.0779 13.3924 15.1795C13.3501 15.281 13.3283 15.3899 13.3283 15.5C13.3283 15.61 13.3501 15.7189 13.3924 15.8204C13.4347 15.922 13.4967 16.0141 13.5748 16.0916C13.6523 16.1697 13.7444 16.2317 13.846 16.274C13.9475 16.3163 14.0564 16.3381 14.1665 16.3381C14.2765 16.3381 14.3854 16.3163 14.4869 16.274C14.5885 16.2317 14.6807 16.1697 14.7581 16.0916L18.0915 12.7583C18.2071 12.6411 18.2854 12.4923 18.3166 12.3306C18.3477 12.169 18.3303 12.0017 18.2665 11.85V11.85Z" fill="#7A7A7A"/>
    </svg>
    