<svg width="20" height="17" viewBox="0 0 20 17" fill="none" xmlns="http://www.w3.org/2000/svg">
    <path
        d="M19.8661 15.5501L10.8697 0.490029C10.7825 0.341267 10.656 0.217532 10.5033 0.131444C10.3505 0.0453572 10.1768 0 10 0C9.82318 0 9.64952 0.0453572 9.49674 0.131444C9.34396 0.217532 9.21753 0.341267 9.13035 0.490029L0.133921 15.5501C0.046188 15.697 0 15.8637 0 16.0334C0 16.203 0.046188 16.3697 0.133921 16.5167C0.221991 16.6642 0.348804 16.7866 0.501521 16.8715C0.654238 16.9563 0.827436 17.0007 1.00358 17H18.9964C19.1726 17.0007 19.3458 16.9563 19.4985 16.8715C19.6512 16.7866 19.778 16.6642 19.8661 16.5167C19.9538 16.3697 20 16.203 20 16.0334C20 15.8637 19.9538 15.697 19.8661 15.5501Z"
        fill="white" />
</svg>
    